HIERARCHY
ROOT root
{
	OFFSET	0	13.1	24.9
	CHANNELS 6  Xposition Yposition Zposition Xrotation Yrotation Zrotation
	JOINT spine_1
	{
		OFFSET	0	9.99999	0
		CHANNELS 3  Xrotation Yrotation Zrotation
		JOINT spine_2
		{
			OFFSET	0	112	-10
			CHANNELS 3  Xrotation Yrotation Zrotation
			JOINT spine_3
			{
				OFFSET	0	206.5	19.3
				CHANNELS 3  Xrotation Yrotation Zrotation
				JOINT spine_4
				{
					OFFSET	0	110.4	14.6
					CHANNELS 3  Xrotation Yrotation Zrotation
					JOINT neck_1
					{
						OFFSET	0	71.8	-50.3
						CHANNELS 3  Xrotation Yrotation Zrotation
						JOINT neck_2
						{
							OFFSET	0	86.2	-25.8
							CHANNELS 3  Xrotation Yrotation Zrotation
							JOINT head_ee
							{
								OFFSET	0	179.8	-8.7
								CHANNELS 3  Xrotation Yrotation Zrotation
								End Site
								{
									OFFSET	1	0	0
								}
							}
						}
					}
					JOINT left_clavicle
					{
						OFFSET	-43.2	22.4	-70.8
						CHANNELS 3  Xrotation Yrotation Zrotation
						JOINT left_shoulder
						{
							OFFSET	-93.9	-5.79999	48.7
							CHANNELS 3  Xrotation Yrotation Zrotation
							JOINT left_elbow
							{
								OFFSET	-291.4	-30.8	15.2
								CHANNELS 3  Xrotation Yrotation Zrotation
								JOINT left_lowarm_twist
								{
									OFFSET	-110.7	-3.89999	13.6
									CHANNELS 3  Xrotation Yrotation Zrotation
									JOINT left_hand
									{
										OFFSET	-110.7	-3.89999	13.6
										CHANNELS 3  Xrotation Yrotation Zrotation
										JOINT left_ee
										{
											OFFSET	-80.8	-5.10001	12.1
											CHANNELS 3  Xrotation Yrotation Zrotation
											End Site
											{
												OFFSET	1	0	0
											}
										}
									}
								}
							}
						}
					}
					JOINT right_clavicle
					{
						OFFSET	43.2	22.4	-70.8
						CHANNELS 3  Xrotation Yrotation Zrotation
						JOINT right_shoulder
						{
							OFFSET	93.9	-5.79999	48.7
							CHANNELS 3  Xrotation Yrotation Zrotation
							JOINT right_elbow
							{
								OFFSET	291.4	-30.8	15.2
								CHANNELS 3  Xrotation Yrotation Zrotation
								JOINT right_lowarm_twist
								{
									OFFSET	110.7	-3.89999	13.6
									CHANNELS 3  Xrotation Yrotation Zrotation
									JOINT right_hand
									{
										OFFSET	110.7	-3.89999	13.6
										CHANNELS 3  Xrotation Yrotation Zrotation
										JOINT right_ee
										{
											OFFSET	80.8	-5.10001	12.1
											CHANNELS 3  Xrotation Yrotation Zrotation
											End Site
											{
												OFFSET	1	0	0
											}
										}
									}
								}
							}
						}
					}
				}
			}
		}
	}
	JOINT left_hip
	{
		OFFSET	-82.8	-127.5	0.300001
		CHANNELS 3  Xrotation Yrotation Zrotation
		JOINT left_knee
		{
			OFFSET	-28.2	-396.7	2.2
			CHANNELS 3  Xrotation Yrotation Zrotation
			JOINT left_ankle
			{
				OFFSET	-11.7	-411.3	35.4
				CHANNELS 3  Xrotation Yrotation Zrotation
				JOINT left_toes
				{
					OFFSET	0	-60	-88.6
					CHANNELS 3  Xrotation Yrotation Zrotation
					JOINT left_foot_ee
					{
						OFFSET	-22.5	-16.5	-42.2
						CHANNELS 3  Xrotation Yrotation Zrotation
						End Site
						{
							OFFSET	1	0	0
						}
					}
				}
			}
		}
	}
	JOINT right_hip
	{
		OFFSET	82.8	-127.5	0.300001
		CHANNELS 3  Xrotation Yrotation Zrotation
		JOINT right_knee
		{
			OFFSET	28.2	-396.7	2.2
			CHANNELS 3  Xrotation Yrotation Zrotation
			JOINT right_ankle
			{
				OFFSET	11.7	-411.3	35.4
				CHANNELS 3  Xrotation Yrotation Zrotation
				JOINT right_toes
				{
					OFFSET	0	-60	-88.6
					CHANNELS 3  Xrotation Yrotation Zrotation
					JOINT right_foot_ee
					{
						OFFSET	22.5	-16.5	-42.2
						CHANNELS 3  Xrotation Yrotation Zrotation
						End Site
						{
							OFFSET	1	0	0
						}
					}
				}
			}
		}
	}
}
MOTION
Frames: 9
Frame Time: 0.02
1041.4 574.639 -1682.42 8.12682197585 30.1994589825 -3.82885567642 -4.3878 -0.198861 0.41205 -4.38774 -0.224678 0.398561 -4.38931 -0.32875 0.318206 -4.38935 -0.27437 0.366132 -1.13071 7.90349 0.56799 -1.01866 13.7442 1.54374 -0.0 0.0 -0.0 6.61859 -5.88615 12.7337 -20.2205 -4.54562 65.3689 0.381617 -10.7052 0.035755 -12.9562 -0.632222 1.52766 3.38776 2.9412 24.4428 -0.0 0.0 -0.0 8.58235 -10.7551 -16.1788 12.8753 25.2256 -56.4148 2.81403 54.3355 -1.44443 21.9085 -0.244852 2.77089 2.04797 6.81171 -10.9985 0.0 0.0 0.0 22.0772 -21.3022 1.3543 -1.62055 0.0633256 0.240626 -15.8475 22.006 2.44238 -22.0271 0.0 0.0 -0.0 0.0 -0.0 -17.2518 -8.9674 -4.10877 -10.7016 -0.290575 -1.61427 41.2338 -12.9634 5.01316 -33.0664 0.0 0.0 0.0 0.0 0.0 
1041.4 574.639 -1682.42 8.18289937795 30.8629777278 -3.93924070172 -4.3878 -0.198861 0.41205 -4.38774 -0.224678 0.398561 -4.38931 -0.32875 0.318206 -4.38935 -0.27437 0.366132 -1.13071 7.90349 0.56799 -1.01866 13.7442 1.54374 -0.0 0.0 -0.0 6.61859 -5.88615 12.7337 -20.2205 -4.54562 65.3689 0.381617 -10.7052 0.035755 -12.9562 -0.632222 1.52766 3.38776 2.9412 24.4428 -0.0 0.0 -0.0 8.58235 -10.7551 -16.1788 12.8753 25.2256 -56.4148 2.81403 54.3355 -1.44443 21.9085 -0.244852 2.77089 2.04797 6.81171 -10.9985 0.0 0.0 0.0 22.0772 -21.3022 1.3543 -1.62055 0.0633256 0.240626 -15.8475 22.006 2.44238 -22.0271 0.0 0.0 -0.0 0.0 -0.0 -17.2518 -8.9674 -4.10877 -10.7016 -0.290575 -1.61427 41.2338 -12.9634 5.01316 -33.0664 0.0 0.0 0.0 0.0 0.0 
1020.9741005 571.519 -1701.95170832 8.25861541569 31.341769521 -3.41745233886 -4.16458 -0.225163 0.341203 -4.16455 -0.246418 0.326184 -4.166 -0.328059 0.243916 -4.16597 -0.28542 0.292665 -0.0170873 8.34375 0.692337 0.125906 14.3143 1.61623 -0.0 0.0 -0.0 6.7748 -6.10295 13.0501 -20.1722 -5.13585 65.1754 0.384964 -10.7969 0.0363792 -12.7663 -0.62049 1.50637 3.4426 2.9249 24.8386 -0.0 0.0 -0.0 8.3642 -11.2601 -15.7454 10.4878 24.4933 -56.3007 2.77717 53.9771 -1.41454 21.8306 -0.245868 2.761 2.06179 6.65332 -11.1613 0.0 0.0 0.0 21.0364 -21.1878 1.17891 -3.10081 0.115193 0.461875 -14.7496 23.3908 2.28489 -22.1388 0.0 0.0 -0.0 0.0 -0.0 -18.4142 -8.93443 -3.81294 -12.28 -0.307737 -1.85583 41.7116 -12.461 5.04797 -33.1082 0.0 0.0 0.0 0.0 0.0 
1020.80423561 571.519 -1701.77250602 8.30295165455 31.8371382586 -3.50209028026 -4.16458 -0.225163 0.341203 -4.16455 -0.246418 0.326184 -4.166 -0.328059 0.243916 -4.16597 -0.28542 0.292665 -0.0170873 8.34375 0.692337 0.125906 14.3143 1.61623 -0.0 0.0 -0.0 6.7748 -6.10295 13.0501 -20.1722 -5.13585 65.1754 0.384964 -10.7969 0.0363792 -12.7663 -0.62049 1.50637 3.4426 2.9249 24.8386 -0.0 0.0 -0.0 8.3642 -11.2601 -15.7454 10.4878 24.4933 -56.3007 2.77717 53.9771 -1.41454 21.8306 -0.245868 2.761 2.06179 6.65332 -11.1613 0.0 0.0 0.0 21.0364 -21.1878 1.17891 -3.10081 0.115193 0.461875 -14.7496 23.3908 2.28489 -22.1388 0.0 0.0 -0.0 0.0 -0.0 -18.4142 -8.93443 -3.81294 -12.28 -0.307737 -1.85583 41.7116 -12.461 5.04797 -33.1082 0.0 0.0 0.0 0.0 0.0 
1020.5475994 571.519 -1701.49570154 8.37287828151 32.5943185339 -3.63325508533 -4.16458 -0.225163 0.341203 -4.16455 -0.246418 0.326184 -4.166 -0.328059 0.243916 -4.16597 -0.28542 0.292665 -0.0170873 8.34375 0.692337 0.125906 14.3143 1.61623 -0.0 0.0 -0.0 6.7748 -6.10295 13.0501 -20.1722 -5.13585 65.1754 0.384964 -10.7969 0.0363792 -12.7663 -0.62049 1.50637 3.4426 2.9249 24.8386 -0.0 0.0 -0.0 8.3642 -11.2601 -15.7454 10.4878 24.4933 -56.3007 2.77717 53.9771 -1.41454 21.8306 -0.245868 2.761 2.06179 6.65332 -11.1613 0.0 0.0 0.0 21.0364 -21.1878 1.17891 -3.10081 0.115193 0.461875 -14.7496 23.3908 2.28489 -22.1388 0.0 0.0 -0.0 0.0 -0.0 -18.4142 -8.93443 -3.81294 -12.28 -0.307737 -1.85583 41.7116 -12.461 5.04797 -33.1082 0.0 0.0 0.0 0.0 0.0 
999.188558174 573.933 -1720.74474239 9.55307916702 32.8263240153 -4.47892295074 -4.09765 -0.234238 0.507847 -4.09754 -0.266078 0.491913 -4.09983 -0.392987 0.397917 -4.09991 -0.325212 0.454988 -0.350422 8.28122 0.950167 -0.220653 14.03 1.91902 -0.0 0.0 -0.0 6.85948 -6.34772 13.2186 -19.8954 -5.91071 64.6502 0.387988 -10.8797 0.0369479 -13.4023 -0.66006 1.57751 3.24661 3.04943 23.4555 -0.0 0.0 -0.0 8.23972 -11.3459 -15.5161 7.40855 24.0941 -56.0676 2.44815 50.4839 -1.15434 21.856 -0.245538 2.76422 2.20631 6.12934 -12.3807 0.0 0.0 0.0 18.7548 -21.0117 1.60485 -4.66463 0.163755 0.696955 -14.7513 22.9744 2.28087 -21.049 0.0 0.0 -0.0 0.0 -0.0 -19.1926 -6.23108 -2.88128 -16.002 -0.32182 -2.42662 40.9075 -13.7039 4.99444 -31.7591 0.0 0.0 0.0 0.0 0.0 
998.593044105 573.933 -1720.07841509 9.65137045171 33.7118292848 -4.65809425071 -4.09765 -0.234238 0.507847 -4.09754 -0.266078 0.491913 -4.09983 -0.392987 0.397917 -4.09991 -0.325212 0.454988 -0.350422 8.28122 0.950167 -0.220653 14.03 1.91902 -0.0 0.0 -0.0 6.85948 -6.34772 13.2186 -19.8954 -5.91071 64.6502 0.387988 -10.8797 0.0369479 -13.4023 -0.66006 1.57751 3.24661 3.04943 23.4555 -0.0 0.0 -0.0 8.23972 -11.3459 -15.5161 7.40855 24.0941 -56.0676 2.44815 50.4839 -1.15434 21.856 -0.245538 2.76422 2.20631 6.12934 -12.3807 0.0 0.0 0.0 18.7548 -21.0117 1.60485 -4.66463 0.163755 0.696955 -14.7513 22.9744 2.28087 -21.049 0.0 0.0 -0.0 0.0 -0.0 -19.1926 -6.23108 -2.88128 -16.002 -0.32182 -2.42662 40.9075 -13.7039 4.99444 -31.7591 0.0 0.0 0.0 0.0 0.0 
960.201080547 584.789 -1753.86679335 10.6630025329 32.8106102289 -5.73935960214 -3.90507 -0.446799 0.80413 -3.90485 -0.497061 0.774071 -3.9117 -0.691673 0.606503 -3.91173 -0.587209 0.708126 0.208043 6.38685 0.554536 0.292729 10.9134 1.25247 -0.0 0.0 -0.0 7.35193 -6.68625 14.2339 -17.0094 -7.74746 62.761 0.522391 -14.5088 0.0664975 -13.1559 -0.644637 1.55 2.25511 2.82777 16.3558 -0.0 0.0 -0.0 7.42945 -11.9937 -14.0388 1.62398 23.6651 -56.2104 2.12206 46.4242 -0.910131 21.3433 -0.251925 2.69905 3.2336 5.55872 -19.8423 0.0 0.0 0.0 14.7889 -20.1542 3.63427 -5.91007 0.197825 0.885047 -11.2457 24.4057 1.74434 -18.9801 0.0 0.0 -0.0 0.0 -0.0 -19.0918 -2.74524 -2.11338 -19.954 -0.296183 -3.03233 41.0631 -13.1137 5.00029 -29.8664 0.0 0.0 0.0 0.0 0.0 
958.549443882 584.789 -1751.94477365 10.8284999324 34.1295763349 -6.0394242977 -3.90507 -0.446799 0.80413 -3.90485 -0.497061 0.774071 -3.9117 -0.691673 0.606503 -3.91173 -0.587209 0.708126 0.208043 6.38685 0.554536 0.292729 10.9134 1.25247 -0.0 0.0 -0.0 7.35193 -6.68625 14.2339 -17.0094 -7.74746 62.761 0.522391 -14.5088 0.0664975 -13.1559 -0.644637 1.55 2.25511 2.82777 16.3558 -0.0 0.0 -0.0 7.42945 -11.9937 -14.0388 1.62398 23.6651 -56.2104 2.12206 46.4242 -0.910131 21.3433 -0.251925 2.69905 3.2336 5.55872 -19.8423 0.0 0.0 0.0 14.7889 -20.1542 3.63427 -5.91007 0.197825 0.885047 -11.2457 24.4057 1.74434 -18.9801 0.0 0.0 -0.0 0.0 -0.0 -19.0918 -2.74524 -2.11338 -19.954 -0.296183 -3.03233 41.0631 -13.1137 5.00029 -29.8664 0.0 0.0 0.0 0.0 0.0 
